<svg enable-background="new 0 0 476.727 203" height="203" viewBox="0 0 476.727 203" width="476.727" xmlns="http://www.w3.org/2000/svg"><g fill="#bd9c39"><path d="m53.189 14.584c-15.345 15.529-22.522 40.145-14.372 53.015 8.149 12.868 34.499 16.649 47.83-1.683 1.287 5.146.61 10.062.61 12.637-6.434 3.289-29.598 14.441-50.187 4.575-20.589-9.865-21.077-47.727.773-69.03-1.455-.287-7.715-1.013-15.579 4.562-7.863 5.576-15.686 6.935-22.264 4.216 4.862-.857 19.017-6.147 14.584-22.876 4.433 3.719 8.58 7.721 19.875 7.721s42.575.484 52.976-1.95c-3.289 3.432-5.935 5.953-8.794 8.813-3.719 0-22.02 0-25.452 0z"/><path d="m374.542 23.394c-12.367 12.515-18.149 32.349-11.582 42.719 6.566 10.371 27.802 13.419 38.543-1.354 1.035 4.146.49 8.106.49 10.182-5.183 2.652-23.852 11.638-40.44 3.688-16.591-7.949-16.984-38.459.622-55.625-1.172-.231-6.215-.817-12.553 3.677-6.336 4.493-12.642 5.587-17.941 3.396 3.918-.689 15.325-4.953 11.752-18.433 3.573 2.995 6.911 6.221 16.015 6.221 9.102 0 34.31.392 42.688-1.571-2.649 2.764-4.78 4.797-7.086 7.103-2.997-.003-17.745-.003-20.508-.003z"/><path d="m165.76 78.188c-2.573 0-6.329.488-9.494-1.212-4.289-2.858-13.996-11.567-19.717-16.557 5.147-1.286 15.349-6.567 19.352-16.862s2.811-16.644-.766-23.063c-4.576-8.213-10.066-10.584-31.73-5.715-6.062 1.362-11.619 3.848-15.944 8.032-.068-2.456-.852-9.128-.852-9.128s-10.527 2.704-13.243 2.704c2.86 8.579 3.718 22.345 3.718 30.924s-2.86 33.171-3.718 37.603h15.312c0-7.006 0-17.697 0-20.843 2.431 0 4.73-.075 9.649.631 7.549 1.084 20.868 16.075 23.728 19.649 5.72-.286 18.674-1.801 24.679-1.658 1.716-.145 2.921-1.291 2.921-2.435 0-1.145-1.321-2.07-3.895-2.07zm-57.304-19.234c.429-7.006-1.092-17.917 7.282-29.083 7.721-10.294 12.857-13.072 16.431-13.502 3.574-.428 9.858 3.887 12.171 9.851 1.283 3.308 2.83 13.227-6.45 21.663-10.712 9.737-19.283 11.071-29.434 11.071z"/><path d="m176.065 14.592c6.291-.296 19.159-1.181 22.591-.887-1.738 5.577-4.659 54.26 0 70.691-4.289 0-14.87 0-16.586 0 1.431-9.003 2.716-37.781 2.001-49.438-.714-11.659-6.005-18.152-8.006-20.366z"/><path d="m297.94 14.592c6.291-.296 19.16-1.181 22.592-.887-1.738 5.577-4.659 54.26 0 70.691-4.29 0-14.87 0-16.588 0 1.433-9.003 2.718-37.781 2.003-49.438-.715-11.659-6.005-18.152-8.007-20.366z"/><path d="m213.107 16.369h16.156v10.486c7.576-12.154 23.581-12.763 41.41-12.179 18.014.589 20.49 26.07 20.205 31.505s-.121 20.082-20.812 33.104c7.149-.286 16.179-.447 20.184-3.164-.287 3.432-2.171 5.618-3.388 8.792-3.145 0-35.184 0-46.993 0 9.805-3.68 30.144-10.591 35.292-31.608s-7.76-34.388-18.483-34.388-23.733 15.215-26.413 31.429c-2.354 14.244-3.289 29.983-1.287 34.271-4.719 0-14.012 0-15.871 0 2.574-11.151 4.964-29.69 4.746-46.592-.233-18.013-3.459-18.797-4.746-21.656z"/><path d="m410.153 27.801c4.139-7.546 6.573-10.587 7.06-11.562.486-.974 2.191-1.583 4.138-1.583h5.478c1.704 0 6.815-.974 9.128 2.921 2.312 3.896 10.711 20.449 10.468 56.109 2.19-5.112 8.275-24.466 10.101-32.255 1.826-7.788 5.841-19.35 6.693-22.515 5.721 0 11.196-.854 13.51-.975-4.259 9.737-13.753 39.678-16.796 54.039-3.042 14.361-4.867 28.237-13.266 36.392-3.286 3.529-12.778 6.572-17.038 7.059-4.261.486-16.431 2.07-21.543-3.042-5.111-5.111-5.357-19.231-3.044-26.412 2.313-7.18 3.532-12.169 9.495-14.482s13.63-6.208 10.223-1.948c-3.408 4.261-9.25 9.858-9.25 21.543 0 11.684 2.556 19.717 10.954 20.326 8.397.608 16.554-18.378 17.405-26.654-4.14 0-9.251-.364-10.833-.122 1.339-9.493 2.192-26.144.974-37.9-1.218-11.757-6.694-20.885-8.642-23.319-1.946-2.436-2.677-1.217-3.407-.852s-7.426 3.772-11.808 5.232z"/><path d="m235.98 128.063h11.758v7.63c5.513-8.846 17.161-9.287 30.136-8.862 13.111.428 14.911 18.974 14.706 22.928-.208 3.955-.088 14.616-15.147 24.093 5.203-.209 11.773-.325 14.688-2.303-.208 2.498-1.58 4.088-2.465 6.398-2.288 0-25.605 0-34.199 0 7.134-2.678 21.936-7.707 25.683-23.003 3.746-15.297-5.648-25.027-13.451-25.027-7.805 0-17.272 11.072-19.222 22.874-1.713 10.366-2.393 21.82-.936 24.941-3.436 0-10.198 0-11.551 0 1.873-8.116 3.612-21.608 3.453-33.908-.168-13.111-2.517-13.681-3.453-15.761z"/><path d="m70.283 104.327c7.302 10.224 10.711 16.554 10.711 25.803s-8.275 38.946-15.335 50.874c6.814-1.46 16.796-3.407 35.539 2.435.974-5.111 1.58-9.493 2.919-12.78-4.869 4.259-17.649 2.556-21.786 4.502 3.652-7.911 10.345-30.062 10.467-40.529.123-10.467-1.947-22.639-6.329-32.375-2.434 1.947-6.449 5.357-16.186 2.07z"/><path d="m137.222 126.724c-17.405 0-27.628 7.546-27.628 25.802 0 17.161 8.154 25.802 27.628 25.802 16.552 0 27.627-7.545 27.627-25.802.001-17.162-7.788-25.802-27.627-25.802zm0 49.291c-11.441 0-16.923-10.358-16.923-23.139 0-12.779 7.577-23.14 16.923-23.14 9.345 0 16.907 9.519 16.907 22.299 0 12.779-7.562 23.98-16.907 23.98z"/><path d="m172.57 134.959c-.047-3.854 2.017-6.167 2.261-8.235h31.888s1.46.851-3.651 3.285-16.916 9.249-18.134 21.178c-1.218 11.928-1.218 23.369 9.979 24.221s21.908-19.717 21.908-29.21c0-9.494 0-19.474 0-19.474h11.563s-1.46 22.028-1.46 30.305.974 19.229 1.46 20.812c-3.286 0-8.521-.123-11.563.486 0-3.042.122-4.258.122-6.206-2.556 1.096-9.979 6.083-22.15 6.206-12.172.122-18.622-3.164-21.178-11.196-2.556-8.033-1.46-24.828 12.536-33.47.609-.487 4.139-2.438-1.947-1.341-6.087 1.098-6.622 1.422-11.634 2.639z"/><path d="m348.479 126.66c1.46 0 2.829 1.552 2.829 2.829 0 1.278-1.004 3.013-2.829 3.013-1.826 0-14.269-.062-19.563-.062-3.478 0-13.145-1.096-15.518 14.423-1.88 12.293 1.277 22.334 11.684 22.334 5.403 0 8.569-.845 13.906.151 11.342 2.113 11.716 19.808 3.985 26.259-7.237 6.039-13.755 6.999-17.589 7.182s-8.763.365-10.406 0-2.373-2.921-1.825-4.199c.547-1.277 1.004-3.651 6.755-2.008 5.75 1.643 15.608-1.552 17.708-8.762 1.01-3.467 2.493-8.291-.59-11.155-2.824-2.62-9.068-2.141-12.574-2.209-3.774-.074-7.146-1.043-10.503-2.763-7.346-3.766-10.942-10.611-10.746-18.836.368-15.422 8.945-19.169 10.68-20.721-5.294 0-8.672.183-10.68.183s-3.377-1.004-3.286-2.83c.092-1.825 1.187-2.829 3.286-2.829z"/><path d="m394.274 153.253c12.779-4.564 16.273-17.38 9.493-22.638-5.965-4.624-12.962-4.382-18.257-4.017-18.256.852-25.438 10.59-25.804 32.619-.365 22.028 13.755 20.203 21.3 20.447 7.548.243 15.823-.244 19.84-1.461.85-3.165 2.921-7.059 4.501-10.589 1.583-3.529-1.58-1.035-5.597 2.251-4.016 3.286-7.667 5.477-13.51 6.207-5.842.73-10.224-1.643-13.692-5.294s-5.659-10.589-5.111-13.145c3.469 0 33.227.183 39.251.183 1.096-.913 2.738-2.739 4.382-6.025-3.652.366-7.303.731-16.796 1.462zm-26.897.366c.727-6.572 5.354-23.979 19.836-24.951 3.286-.242 7.91 3.044 7.791 9.616-.123 6.572-8.517 19.231-27.627 15.335z"/></g></svg>